# xmcd
#
# Track frame offsets:
#	150
#	9662
#	25750
#	39432
#	52182
#	69062
#	82246
#	93681
#	111271
#	121598
#	135959
#	148744
#	161295
#
# Disc length: 2447 seconds
# Revision: 0
# Processed by: cddbd v1.5.2PL0 Copyright (c) Steve Scherf et al.
# Submitted via: dBpowerAMP V12.0
#
DISCID=a5098d0d
DTITLE=Turning Ground - Old Country Store
DYEAR=2018
DGENRE=Bluegrass
TTITLE0=Barbed Wire and Roses
TTITLE1=I've Lived a Good Life
TTITLE2=Old Country Store
TTITLE3=Don't Tell Me I've Gone Crazy
TTITLE4=The Lonesome River
TTITLE5=Sadie
TTITLE6=Old Kentucky Shine
TTITLE7=I'm Gonna Wear a Crown
TTITLE8=Bluegrass
TTITLE9=Waymore Blues
TTITLE10=Let the Big Wheels Roll
TTITLE11=The Longer You Wait
TTITLE12=Will Heal Over Time
EXTD=
EXTT0=
EXTT1=
EXTT2=
EXTT3=
EXTT4=
EXTT5=
EXTT6=
EXTT7=
EXTT8=
EXTT9=
EXTT10=
EXTT11=
EXTT12=
PLAYORDER=
